<svg width="57" height="55" viewBox="0 0 57 55" fill="none" xmlns="http://www.w3.org/2000/svg">
<path d="M31.568 44.843L39.7798 36.8763C40.1276 36.5389 40.6748 36.492 41.0782 36.7649L53.9511 45.4751C54.4693 45.8257 54.5349 46.5456 54.0881 46.9791L49.4896 51.4403C48.7687 52.1397 47.7366 52.4414 46.7513 52.1873C42.3156 51.0437 29.4192 47.0332 19.064 36.9871C8.70884 26.9411 4.57499 14.4297 3.39615 10.1264C3.13428 9.17042 3.4452 8.16916 4.16614 7.46974L8.76465 3.00851C9.21144 2.57505 9.95348 2.63871 10.3149 3.1415L19.293 15.6301C19.5744 16.0215 19.526 16.5523 19.1782 16.8897L10.9665 24.8564" stroke="#F2F2F2" stroke-width="5" stroke-linecap="round"/>
</svg>
